<svg xmlns="http://www.w3.org/2000/svg" width="2480" height="3508" viewBox="0 0 2480 3508">

<style>
.bg{fill:#F7F3EA}.navy{fill:#0E2A3A}.gold{fill:#C7A15A}
.title{font-family:Montserrat,Arial,sans-serif;font-size:62px;font-weight:700;fill:#0E2A3A}
.section{font-family:Montserrat,Arial,sans-serif;font-size:28px;font-weight:700;letter-spacing:4px;fill:#C7A15A}
.label{font-family:Inter,Arial,sans-serif;font-size:24px;font-weight:700;fill:#0E2A3A}
.body{font-family:Inter,Arial,sans-serif;font-size:24px;fill:#30343B}
.small{font-family:Inter,Arial,sans-serif;font-size:20px;fill:#6F7782}
.dynamic-field{fill:#fff;stroke:#D7D1C4;stroke-width:2}
.photo-slot{fill:#fff;stroke:#D7D1C4;stroke-width:3;stroke-dasharray:14 12}
.status-slot{fill:#fff;stroke:#D7D1C4;stroke-width:2}
.status-conforme{fill:#2F6B3F}.status-ressalva{fill:#B8642B}.status-nao-conforme{fill:#8B2635}
</style>
<rect class="bg" width="2480" height="3508"/>
<g id="header">
<rect x="150" y="110" width="110" height="110" rx="22" class="navy"/>
<path d="M185 135 l35 20 v40 c0 38-22 67-35 76-13-9-35-38-35-76v-40z" fill="#C7A15A"/>
<path d="M167 193 l14 14 26-32" fill="none" stroke="#F7F3EA" stroke-width="10" stroke-linecap="round" stroke-linejoin="round"/>
<text x="285" y="165" class="title" style="font-size:54px">CERTIVE</text>
<text x="288" y="205" class="small" style="letter-spacing:7px">VISTORIAS</text>
<text x="1840" y="145" class="small">DOSSIÊ</text><rect id="field-dossier" x="1840" y="165" width="490" height="72" rx="8" class="dynamic-field"/>
<line x1="150" y1="275" x2="2330" y2="275" stroke="#C7A15A" stroke-width="5"/>
<text x="150" y="390" class="section">SEÇÃO 4</text><text x="150" y="470" class="title">PINTURA E ACABAMENTO</text></g><text x="150" y="610" class="label">MAPA / PARECER DE PINTURA</text><rect id="paint-map" x="150" y="650" width="970" height="1450" rx="12" class="dynamic-field"/><text x="1210" y="610" class="label">MEDIÇÕES MICROMÉTRICAS</text><rect id="paint-row-1" x="1210" y="650" width="1120" height="83" rx="0" class="dynamic-field"/><text x="1235" y="703" class="body">Capô</text><rect id="paint-value-1" x="1950" y="662" width="350" height="58" rx="8" class="dynamic-field"/><rect id="paint-row-2" x="1210" y="737" width="1120" height="83" rx="0" class="dynamic-field"/><text x="1235" y="790" class="body">Teto</text><rect id="paint-value-2" x="1950" y="749" width="350" height="58" rx="8" class="dynamic-field"/><rect id="paint-row-3" x="1210" y="824" width="1120" height="83" rx="0" class="dynamic-field"/><text x="1235" y="877" class="body">Tampa traseira</text><rect id="paint-value-3" x="1950" y="836" width="350" height="58" rx="8" class="dynamic-field"/><rect id="paint-row-4" x="1210" y="911" width="1120" height="83" rx="0" class="dynamic-field"/><text x="1235" y="964" class="body">Porta dianteira direita</text><rect id="paint-value-4" x="1950" y="923" width="350" height="58" rx="8" class="dynamic-field"/><rect id="paint-row-5" x="1210" y="998" width="1120" height="83" rx="0" class="dynamic-field"/><text x="1235" y="1051" class="body">Porta dianteira esquerda</text><rect id="paint-value-5" x="1950" y="1010" width="350" height="58" rx="8" class="dynamic-field"/><rect id="paint-row-6" x="1210" y="1085" width="1120" height="83" rx="0" class="dynamic-field"/><text x="1235" y="1138" class="body">Porta traseira direita</text><rect id="paint-value-6" x="1950" y="1097" width="350" height="58" rx="8" class="dynamic-field"/><rect id="paint-row-7" x="1210" y="1172" width="1120" height="83" rx="0" class="dynamic-field"/><text x="1235" y="1225" class="body">Porta traseira esquerda</text><rect id="paint-value-7" x="1950" y="1184" width="350" height="58" rx="8" class="dynamic-field"/><rect id="paint-row-8" x="1210" y="1259" width="1120" height="83" rx="0" class="dynamic-field"/><text x="1235" y="1312" class="body">Paralama dianteiro direito</text><rect id="paint-value-8" x="1950" y="1271" width="350" height="58" rx="8" class="dynamic-field"/><rect id="paint-row-9" x="1210" y="1346" width="1120" height="83" rx="0" class="dynamic-field"/><text x="1235" y="1399" class="body">Paralama dianteiro esquerdo</text><rect id="paint-value-9" x="1950" y="1358" width="350" height="58" rx="8" class="dynamic-field"/><rect id="paint-row-10" x="1210" y="1433" width="1120" height="83" rx="0" class="dynamic-field"/><text x="1235" y="1486" class="body">Paralama traseiro direito</text><rect id="paint-value-10" x="1950" y="1445" width="350" height="58" rx="8" class="dynamic-field"/><rect id="paint-row-11" x="1210" y="1520" width="1120" height="83" rx="0" class="dynamic-field"/><text x="1235" y="1573" class="body">Paralama traseiro esquerdo</text><rect id="paint-value-11" x="1950" y="1532" width="350" height="58" rx="8" class="dynamic-field"/><rect id="paint-row-12" x="1210" y="1607" width="1120" height="83" rx="0" class="dynamic-field"/><text x="1235" y="1660" class="body">Coluna A direita</text><rect id="paint-value-12" x="1950" y="1619" width="350" height="58" rx="8" class="dynamic-field"/><rect id="paint-row-13" x="1210" y="1694" width="1120" height="83" rx="0" class="dynamic-field"/><text x="1235" y="1747" class="body">Coluna A esquerda</text><rect id="paint-value-13" x="1950" y="1706" width="350" height="58" rx="8" class="dynamic-field"/><rect id="paint-row-14" x="1210" y="1781" width="1120" height="83" rx="0" class="dynamic-field"/><text x="1235" y="1834" class="body">Coluna B direita</text><rect id="paint-value-14" x="1950" y="1793" width="350" height="58" rx="8" class="dynamic-field"/><rect id="paint-row-15" x="1210" y="1868" width="1120" height="83" rx="0" class="dynamic-field"/><text x="1235" y="1921" class="body">Coluna B esquerda</text><rect id="paint-value-15" x="1950" y="1880" width="350" height="58" rx="8" class="dynamic-field"/><rect id="paint-row-16" x="1210" y="1955" width="1120" height="83" rx="0" class="dynamic-field"/><text x="1235" y="2008" class="body">Coluna C direita</text><rect id="paint-value-16" x="1950" y="1967" width="350" height="58" rx="8" class="dynamic-field"/><rect id="paint-row-17" x="1210" y="2042" width="1120" height="83" rx="0" class="dynamic-field"/><text x="1235" y="2095" class="body">Coluna C esquerda</text><rect id="paint-value-17" x="1950" y="2054" width="350" height="58" rx="8" class="dynamic-field"/><text x="150" y="2250" class="label">ETIQUETAS DE IDENTIFICAÇÃO</text><text x="150" y="2320" class="label">COMPARTIMENTO DO MOTOR</text><rect id="label-photo-1" x="150" y="2360" width="1010" height="540" rx="12" class="photo-slot"/><rect id="label-status-1" x="150" y="2920" width="1010" height="85" rx="20" class="status-slot"/><text x="1240" y="2320" class="label">COLUNA DA PORTA</text><rect id="label-photo-2" x="1240" y="2360" width="1010" height="540" rx="12" class="photo-slot"/><rect id="label-status-2" x="1240" y="2920" width="1010" height="85" rx="20" class="status-slot"/><g id="footer"><line x1="150" y1="3358" x2="2330" y2="3358" stroke="#D7D1C4" stroke-width="3"/>
<text x="150" y="3413" class="small">CERTIVE VISTORIAS • LAUDO CAUTELAR</text>
<text x="2270" y="3413" class="label">06</text></g></svg>