<svg xmlns="http://www.w3.org/2000/svg" width="2480" height="3508" viewBox="0 0 2480 3508">

<style>
.bg{fill:#F7F3EA}.navy{fill:#0E2A3A}.gold{fill:#C7A15A}
.title{font-family:Montserrat,Arial,sans-serif;font-size:62px;font-weight:700;fill:#0E2A3A}
.section{font-family:Montserrat,Arial,sans-serif;font-size:28px;font-weight:700;letter-spacing:4px;fill:#C7A15A}
.label{font-family:Inter,Arial,sans-serif;font-size:24px;font-weight:700;fill:#0E2A3A}
.body{font-family:Inter,Arial,sans-serif;font-size:24px;fill:#30343B}
.small{font-family:Inter,Arial,sans-serif;font-size:20px;fill:#6F7782}
.dynamic-field{fill:#fff;stroke:#D7D1C4;stroke-width:2}
.photo-slot{fill:#fff;stroke:#D7D1C4;stroke-width:3;stroke-dasharray:14 12}
.status-slot{fill:#fff;stroke:#D7D1C4;stroke-width:2}
.status-conforme{fill:#2F6B3F}.status-ressalva{fill:#B8642B}.status-nao-conforme{fill:#8B2635}
</style>
<rect class="bg" width="2480" height="3508"/>
<g id="header">
<rect x="150" y="110" width="110" height="110" rx="22" class="navy"/>
<path d="M185 135 l35 20 v40 c0 38-22 67-35 76-13-9-35-38-35-76v-40z" fill="#C7A15A"/>
<path d="M167 193 l14 14 26-32" fill="none" stroke="#F7F3EA" stroke-width="10" stroke-linecap="round" stroke-linejoin="round"/>
<text x="285" y="165" class="title" style="font-size:54px">CERTIVE</text>
<text x="288" y="205" class="small" style="letter-spacing:7px">VISTORIAS</text>
<text x="1840" y="145" class="small">DOSSIÊ</text><rect id="field-dossier" x="1840" y="165" width="490" height="72" rx="8" class="dynamic-field"/>
<line x1="150" y1="275" x2="2330" y2="275" stroke="#C7A15A" stroke-width="5"/>
<text x="150" y="390" class="section">SEÇÃO 3</text><text x="150" y="470" class="title">ANÁLISE ESTRUTURAL</text></g><text x="150" y="610" class="label">ITEM ESTRUTURAL</text><text x="1710" y="610" class="label">STATUS</text><rect id="struct-row-1" x="150" y="650" width="2180" height="92" rx="0" class="dynamic-field"/><text x="175" y="708" class="body">Longarina dianteira direita</text><rect id="struct-status-1" x="1680" y="665" width="620" height="62" rx="20" class="status-slot"/><rect id="struct-row-2" x="150" y="748" width="2180" height="92" rx="0" class="dynamic-field"/><text x="175" y="806" class="body">Longarina dianteira esquerda</text><rect id="struct-status-2" x="1680" y="763" width="620" height="62" rx="20" class="status-slot"/><rect id="struct-row-3" x="150" y="846" width="2180" height="92" rx="0" class="dynamic-field"/><text x="175" y="904" class="body">Longarina traseira direita</text><rect id="struct-status-3" x="1680" y="861" width="620" height="62" rx="20" class="status-slot"/><rect id="struct-row-4" x="150" y="944" width="2180" height="92" rx="0" class="dynamic-field"/><text x="175" y="1002" class="body">Longarina traseira esquerda</text><rect id="struct-status-4" x="1680" y="959" width="620" height="62" rx="20" class="status-slot"/><rect id="struct-row-5" x="150" y="1042" width="2180" height="92" rx="0" class="dynamic-field"/><text x="175" y="1100" class="body">Painel corta-fogo</text><rect id="struct-status-5" x="1680" y="1057" width="620" height="62" rx="20" class="status-slot"/><rect id="struct-row-6" x="150" y="1140" width="2180" height="92" rx="0" class="dynamic-field"/><text x="175" y="1198" class="body">Painel frontal</text><rect id="struct-status-6" x="1680" y="1155" width="620" height="62" rx="20" class="status-slot"/><rect id="struct-row-7" x="150" y="1238" width="2180" height="92" rx="0" class="dynamic-field"/><text x="175" y="1296" class="body">Painel traseiro</text><rect id="struct-status-7" x="1680" y="1253" width="620" height="62" rx="20" class="status-slot"/><rect id="struct-row-8" x="150" y="1336" width="2180" height="92" rx="0" class="dynamic-field"/><text x="175" y="1394" class="body">Assoalho dianteiro</text><rect id="struct-status-8" x="1680" y="1351" width="620" height="62" rx="20" class="status-slot"/><rect id="struct-row-9" x="150" y="1434" width="2180" height="92" rx="0" class="dynamic-field"/><text x="175" y="1492" class="body">Assoalho traseiro</text><rect id="struct-status-9" x="1680" y="1449" width="620" height="62" rx="20" class="status-slot"/><rect id="struct-row-10" x="150" y="1532" width="2180" height="92" rx="0" class="dynamic-field"/><text x="175" y="1590" class="body">Caixa de ar direita</text><rect id="struct-status-10" x="1680" y="1547" width="620" height="62" rx="20" class="status-slot"/><rect id="struct-row-11" x="150" y="1630" width="2180" height="92" rx="0" class="dynamic-field"/><text x="175" y="1688" class="body">Caixa de ar esquerda</text><rect id="struct-status-11" x="1680" y="1645" width="620" height="62" rx="20" class="status-slot"/><rect id="struct-row-12" x="150" y="1728" width="2180" height="92" rx="0" class="dynamic-field"/><text x="175" y="1786" class="body">Coluna A direita</text><rect id="struct-status-12" x="1680" y="1743" width="620" height="62" rx="20" class="status-slot"/><rect id="struct-row-13" x="150" y="1826" width="2180" height="92" rx="0" class="dynamic-field"/><text x="175" y="1884" class="body">Coluna A esquerda</text><rect id="struct-status-13" x="1680" y="1841" width="620" height="62" rx="20" class="status-slot"/><rect id="struct-row-14" x="150" y="1924" width="2180" height="92" rx="0" class="dynamic-field"/><text x="175" y="1982" class="body">Coluna B direita</text><rect id="struct-status-14" x="1680" y="1939" width="620" height="62" rx="20" class="status-slot"/><rect id="struct-row-15" x="150" y="2022" width="2180" height="92" rx="0" class="dynamic-field"/><text x="175" y="2080" class="body">Coluna B esquerda</text><rect id="struct-status-15" x="1680" y="2037" width="620" height="62" rx="20" class="status-slot"/><rect id="struct-row-16" x="150" y="2120" width="2180" height="92" rx="0" class="dynamic-field"/><text x="175" y="2178" class="body">Coluna C direita</text><rect id="struct-status-16" x="1680" y="2135" width="620" height="62" rx="20" class="status-slot"/><rect id="struct-row-17" x="150" y="2218" width="2180" height="92" rx="0" class="dynamic-field"/><text x="175" y="2276" class="body">Coluna C esquerda</text><rect id="struct-status-17" x="1680" y="2233" width="620" height="62" rx="20" class="status-slot"/><rect id="struct-row-18" x="150" y="2316" width="2180" height="92" rx="0" class="dynamic-field"/><text x="175" y="2374" class="body">Caixa de estepe</text><rect id="struct-status-18" x="1680" y="2331" width="620" height="62" rx="20" class="status-slot"/><rect id="struct-row-19" x="150" y="2414" width="2180" height="92" rx="0" class="dynamic-field"/><text x="175" y="2472" class="body">Travessas estruturais</text><rect id="struct-status-19" x="1680" y="2429" width="620" height="62" rx="20" class="status-slot"/><rect id="struct-row-20" x="150" y="2512" width="2180" height="92" rx="0" class="dynamic-field"/><text x="175" y="2570" class="body">Pontos de solda</text><rect id="struct-status-20" x="1680" y="2527" width="620" height="62" rx="20" class="status-slot"/><text x="150" y="2720" class="label">REGISTRO FOTOGRÁFICO DA ESTRUTURA</text><rect id="struct-photo-1" x="150" y="2760" width="680" height="300" rx="10" class="photo-slot"/><rect id="struct-photo-2" x="885" y="2760" width="680" height="300" rx="10" class="photo-slot"/><rect id="struct-photo-3" x="1620" y="2760" width="680" height="300" rx="10" class="photo-slot"/><rect id="struct-photo-4" x="150" y="3120" width="680" height="300" rx="10" class="photo-slot"/><rect id="struct-photo-5" x="885" y="3120" width="680" height="300" rx="10" class="photo-slot"/><rect id="struct-photo-6" x="1620" y="3120" width="680" height="300" rx="10" class="photo-slot"/><g id="footer"><line x1="150" y1="3358" x2="2330" y2="3358" stroke="#D7D1C4" stroke-width="3"/>
<text x="150" y="3413" class="small">CERTIVE VISTORIAS • LAUDO CAUTELAR</text>
<text x="2270" y="3413" class="label">05</text></g></svg>