<svg xmlns="http://www.w3.org/2000/svg" width="2480" height="3508" viewBox="0 0 2480 3508">

<style>
.bg{fill:#F7F3EA}.navy{fill:#0E2A3A}.gold{fill:#C7A15A}
.title{font-family:Montserrat,Arial,sans-serif;font-size:62px;font-weight:700;fill:#0E2A3A}
.section{font-family:Montserrat,Arial,sans-serif;font-size:28px;font-weight:700;letter-spacing:4px;fill:#C7A15A}
.label{font-family:Inter,Arial,sans-serif;font-size:24px;font-weight:700;fill:#0E2A3A}
.body{font-family:Inter,Arial,sans-serif;font-size:24px;fill:#30343B}
.small{font-family:Inter,Arial,sans-serif;font-size:20px;fill:#6F7782}
.dynamic-field{fill:#fff;stroke:#D7D1C4;stroke-width:2}
.photo-slot{fill:#fff;stroke:#D7D1C4;stroke-width:3;stroke-dasharray:14 12}
.status-slot{fill:#fff;stroke:#D7D1C4;stroke-width:2}
.status-conforme{fill:#2F6B3F}.status-ressalva{fill:#B8642B}.status-nao-conforme{fill:#8B2635}
</style>
<rect class="bg" width="2480" height="3508"/>
<g id="header">
<rect x="150" y="110" width="110" height="110" rx="22" class="navy"/>
<path d="M185 135 l35 20 v40 c0 38-22 67-35 76-13-9-35-38-35-76v-40z" fill="#C7A15A"/>
<path d="M167 193 l14 14 26-32" fill="none" stroke="#F7F3EA" stroke-width="10" stroke-linecap="round" stroke-linejoin="round"/>
<text x="285" y="165" class="title" style="font-size:54px">CERTIVE</text>
<text x="288" y="205" class="small" style="letter-spacing:7px">VISTORIAS</text>
<text x="1840" y="145" class="small">DOSSIÊ</text><rect id="field-dossier" x="1840" y="165" width="490" height="72" rx="8" class="dynamic-field"/>
<line x1="150" y1="275" x2="2330" y2="275" stroke="#C7A15A" stroke-width="5"/>
<text x="150" y="390" class="section">SEÇÃO 1</text><text x="150" y="470" class="title">IDENTIFICAÇÃO DO VEÍCULO</text></g><text x="150" y="610" class="small">MARCA / MODELO</text><rect id="field-1" x="150" y="635" width="980" height="105" rx="8" class="dynamic-field"/><text x="150" y="780" class="small">ANO FAB. / MODELO</text><rect id="field-2" x="150" y="805" width="980" height="105" rx="8" class="dynamic-field"/><text x="150" y="950" class="small">PLACA</text><rect id="field-3" x="150" y="975" width="980" height="105" rx="8" class="dynamic-field"/><text x="150" y="1120" class="small">COR</text><rect id="field-4" x="150" y="1145" width="980" height="105" rx="8" class="dynamic-field"/><text x="150" y="1290" class="small">CHASSI</text><rect id="field-5" x="150" y="1315" width="980" height="105" rx="8" class="dynamic-field"/><text x="150" y="1460" class="small">MOTOR</text><rect id="field-6" x="150" y="1485" width="980" height="105" rx="8" class="dynamic-field"/><text x="150" y="1630" class="small">COMBUSTÍVEL</text><rect id="field-7" x="150" y="1655" width="980" height="105" rx="8" class="dynamic-field"/><text x="150" y="1800" class="small">RENAVAM</text><rect id="field-8" x="150" y="1825" width="980" height="105" rx="8" class="dynamic-field"/><text x="150" y="1970" class="small">QUILOMETRAGEM</text><rect id="field-9" x="150" y="1995" width="980" height="105" rx="8" class="dynamic-field"/><text x="150" y="2140" class="small">DATA / HORA</text><rect id="field-10" x="150" y="2165" width="980" height="105" rx="8" class="dynamic-field"/><text x="150" y="2310" class="small">UNIDADE</text><rect id="field-11" x="150" y="2335" width="980" height="105" rx="8" class="dynamic-field"/><text x="150" y="2480" class="small">VISTORIADOR</text><rect id="field-12" x="150" y="2505" width="980" height="105" rx="8" class="dynamic-field"/><text x="1230" y="610" class="label">FRENTE 45° DIREITA</text><rect id="photo-front-right" x="1230" y="645" width="1100" height="790" rx="12" class="photo-slot"/><text x="1230" y="1545" class="label">TRASEIRA 45° ESQUERDA</text><rect id="photo-rear-left" x="1230" y="1580" width="1100" height="790" rx="12" class="photo-slot"/><g id="footer"><line x1="150" y1="3358" x2="2330" y2="3358" stroke="#D7D1C4" stroke-width="3"/>
<text x="150" y="3413" class="small">CERTIVE VISTORIAS • LAUDO CAUTELAR</text>
<text x="2270" y="3413" class="label">03</text></g></svg>